<?xml version="1.0" standalone="no"?>
<!DOCTYPE svg PUBLIC "-//W3C//DTD SVG 20010904//EN"
 "http://www.w3.org/TR/2001/REC-SVG-20010904/DTD/svg10.dtd">
<svg version="1.0" xmlns="http://www.w3.org/2000/svg"
 width="1024.000000pt" height="1024.000000pt" viewBox="0 0 1024.000000 1024.000000"
 preserveAspectRatio="xMidYMid meet">
<metadata>
Created by potrace 1.14, written by Peter Selinger 2001-2017
</metadata>
<g transform="translate(0.000000,1024.000000) scale(0.100000,-0.100000)"
fill="#000000" stroke="none">
<path d="M4868 10075 c-1 -1 -52 -6 -113 -10 -60 -3 -123 -8 -140 -10 -16 -2
-52 -7 -80 -10 -27 -3 -61 -8 -75 -10 -14 -2 -61 -9 -105 -15 -44 -7 -89 -14
-100 -16 -11 -2 -45 -9 -75 -15 -30 -5 -66 -12 -80 -15 -14 -3 -72 -16 -130
-30 -58 -14 -112 -27 -120 -29 -112 -26 -414 -127 -565 -188 -196 -80 -218
-89 -395 -180 -162 -83 -203 -105 -248 -132 -9 -6 -49 -29 -87 -52 -138 -81
-410 -271 -521 -362 -17 -14 -42 -35 -55 -45 -182 -146 -446 -404 -625 -611
-111 -130 -314 -396 -314 -414 0 -5 -4 -11 -8 -13 -5 -1 -38 -48 -74 -103
-276 -424 -481 -882 -619 -1380 -27 -99 -52 -192 -54 -207 -3 -16 -12 -56 -19
-90 -15 -63 -25 -117 -32 -173 -2 -16 -8 -52 -14 -80 -13 -67 -37 -276 -47
-400 -15 -198 -7 -753 12 -865 2 -14 7 -52 10 -85 12 -116 31 -239 60 -385 3
-14 8 -41 11 -60 28 -161 144 -550 228 -769 271 -703 730 -1371 1287 -1876
103 -93 124 -110 244 -207 466 -372 963 -643 1525 -831 167 -56 478 -141 560
-152 24 -4 47 -8 50 -10 3 -2 21 -6 40 -9 19 -3 45 -8 57 -10 11 -3 43 -7 70
-11 26 -4 59 -9 73 -11 14 -2 61 -9 105 -14 44 -6 96 -13 115 -15 203 -26 895
-26 1000 0 8 2 51 7 95 10 44 4 82 8 85 10 3 2 30 6 60 10 30 4 89 13 130 21
41 8 91 17 110 20 151 23 562 141 795 229 265 100 612 271 830 410 140 89 315
207 341 230 7 6 24 19 40 30 305 219 690 599 959 950 112 147 345 490 345 509
0 3 22 42 48 88 112 194 234 458 320 689 47 125 146 437 156 491 2 13 13 61
24 108 12 47 23 99 27 115 3 17 8 41 11 55 14 68 34 186 40 237 3 32 8 60 9
63 2 3 6 37 10 75 4 39 9 78 10 87 11 59 20 280 20 508 0 288 -8 427 -35 625
-5 39 -12 90 -15 115 -3 25 -10 65 -15 90 -5 25 -14 74 -20 110 -16 92 -65
292 -110 451 -111 389 -293 801 -520 1179 -58 97 -254 388 -269 400 -4 3 -29
34 -56 70 -27 36 -52 67 -55 70 -3 3 -23 28 -45 55 -189 237 -549 584 -801
772 -16 12 -49 36 -74 55 -336 253 -800 504 -1210 655 -300 111 -660 207 -930
247 -19 3 -44 7 -55 10 -11 2 -45 7 -76 10 -31 4 -65 8 -75 10 -11 2 -55 7
-99 11 -44 4 -98 9 -120 12 -48 5 -632 13 -637 8z m637 -109 c17 -2 62 -7 100
-10 76 -7 118 -12 210 -26 33 -5 78 -12 100 -15 312 -44 820 -192 1122 -326
24 -10 62 -28 86 -38 147 -66 393 -193 449 -232 14 -11 29 -19 32 -19 8 0 183
-112 296 -190 775 -536 1404 -1327 1744 -2195 26 -66 51 -129 56 -140 27 -60
128 -400 156 -525 4 -19 9 -39 10 -45 5 -20 45 -210 50 -240 2 -16 9 -55 14
-85 12 -74 18 -114 25 -185 4 -33 8 -69 10 -81 12 -78 20 -278 20 -509 -1
-344 -12 -480 -66 -812 -25 -152 -45 -242 -114 -513 -21 -84 -137 -415 -180
-515 -7 -16 -25 -59 -40 -95 -38 -90 -186 -386 -218 -437 -15 -24 -27 -45 -27
-47 0 -2 -23 -42 -51 -88 -338 -548 -748 -1001 -1244 -1373 -178 -133 -340
-238 -570 -371 -93 -53 -339 -171 -465 -224 -69 -28 -134 -56 -145 -61 -12 -6
-27 -11 -35 -13 -8 -2 -22 -6 -30 -9 -43 -18 -299 -100 -395 -126 -226 -62
-499 -114 -710 -137 -33 -3 -67 -8 -77 -9 -138 -26 -777 -26 -989 0 -19 3 -56
7 -84 10 -42 5 -97 13 -210 29 -11 2 -60 11 -110 21 -49 9 -101 19 -115 21
-190 34 -626 171 -860 269 -154 65 -435 204 -535 264 -37 23 -69 41 -71 41 -2
0 -54 32 -116 72 -428 271 -815 611 -1141 1001 -56 67 -120 147 -142 177 -22
30 -42 57 -45 60 -19 18 -166 240 -245 371 -118 194 -238 431 -320 631 -14 35
-30 72 -35 83 -51 113 -144 407 -205 645 -9 37 -64 309 -69 345 -3 22 -8 54
-11 70 -10 61 -15 91 -20 145 -3 30 -8 69 -10 85 -20 163 -28 670 -12 850 18
217 41 392 69 535 11 58 22 114 24 125 10 52 37 172 42 185 3 8 6 21 8 28 10
49 75 261 116 380 102 296 253 621 416 892 479 799 1190 1456 2022 1866 298
147 577 253 898 340 52 14 106 28 121 30 14 3 51 11 81 19 30 7 83 19 117 25
35 6 73 13 85 15 34 6 217 33 268 40 105 12 130 15 230 21 58 4 107 8 108 10
6 4 592 -5 627 -10z"/>
<path d="M4169 8579 c-26 -4 -55 -12 -66 -18 -11 -5 -60 -13 -109 -16 -80 -5
-129 -11 -129 -15 0 -1 -13 -3 -30 -5 -49 -6 -97 -16 -148 -30 -26 -8 -49 -14
-52 -15 -3 0 -6 0 -7 -1 -2 0 -10 -2 -18 -4 -46 -10 -175 -47 -189 -54 -9 -5
-20 -9 -26 -10 -14 -2 -76 -21 -100 -31 -85 -36 -256 -90 -288 -90 -7 0 -23
-9 -35 -20 -12 -12 -22 -18 -22 -15 0 3 -18 -13 -40 -36 -22 -23 -40 -39 -40
-36 0 6 -23 -11 -64 -48 -11 -10 -34 -16 -66 -19 -8 0 -21 -7 -28 -14 -8 -7
-18 -10 -23 -7 -5 4 -9 1 -9 -5 0 -6 -4 -9 -8 -6 -4 2 -27 -4 -50 -14 -24 -11
-54 -21 -67 -23 -13 -1 -27 -6 -31 -10 -4 -4 -17 -7 -29 -7 -11 0 -25 -4 -31
-8 -5 -5 -29 -14 -54 -21 -25 -7 -54 -17 -65 -22 -17 -6 -56 -19 -75 -24 -44
-12 -60 -19 -60 -27 0 -5 -4 -6 -10 -3 -5 3 -10 1 -10 -5 0 -6 -5 -8 -11 -5
-5 4 -22 2 -37 -3 -15 -6 -36 -14 -47 -18 -11 -4 -22 -8 -25 -8 -3 -1 -12 -6
-20 -11 -8 -5 -22 -11 -30 -12 -21 -3 -244 -81 -295 -103 -31 -13 -58 -21 -85
-26 -14 -3 -35 -12 -48 -20 -12 -8 -22 -12 -22 -8 0 4 -7 1 -15 -6 -8 -7 -15
-9 -15 -4 0 5 -4 4 -8 -2 -4 -6 -31 -19 -61 -29 -30 -10 -78 -30 -108 -46 -30
-16 -64 -29 -74 -29 -10 0 -28 -9 -39 -20 -11 -11 -24 -20 -29 -20 -5 0 -11
-3 -13 -7 -1 -5 -18 -20 -36 -35 -19 -16 -30 -28 -25 -28 4 0 2 -4 -6 -9 -16
-10 -17 -9 37 -106 16 -27 36 -62 45 -76 9 -14 14 -29 10 -32 -3 -4 -1 -7 6
-7 7 0 9 -4 6 -10 -3 -5 -2 -10 4 -10 6 0 16 -18 22 -40 7 -22 17 -40 22 -40
6 0 8 -3 4 -6 -3 -4 0 -19 9 -35 8 -16 11 -29 8 -29 -4 0 1 -9 11 -20 10 -11
15 -20 11 -20 -3 0 3 -18 14 -40 11 -21 22 -47 23 -57 2 -10 10 -31 17 -48 6
-16 16 -41 20 -55 4 -14 27 -77 49 -140 23 -63 41 -116 41 -118 0 -1 7 -18 15
-38 8 -20 15 -41 15 -46 0 -8 32 -103 66 -198 3 -8 5 -17 5 -20 0 -3 7 -15 15
-27 8 -13 12 -23 10 -23 -3 0 1 -15 9 -34 8 -18 11 -36 8 -40 -4 -3 -1 -6 5
-6 7 0 12 -6 12 -12 0 -19 72 -181 88 -197 7 -8 26 -16 40 -18 45 -7 354 -6
399 1 23 4 56 9 75 10 18 2 41 6 51 11 10 4 31 8 47 9 17 0 30 4 30 8 0 4 8 7
18 7 16 0 57 8 57 11 0 3 43 9 102 13 34 3 67 8 73 12 9 5 135 16 190 16 118
0 159 -4 189 -19 45 -21 71 -43 71 -59 0 -7 5 -13 10 -13 6 0 10 -8 10 -18 0
-10 5 -23 12 -30 6 -6 14 -20 17 -29 6 -25 5 -290 -3 -453 -3 -74 -8 -186 -10
-248 -3 -62 -8 -117 -11 -122 -3 -6 -1 -10 5 -10 7 0 8 -5 3 -12 -4 -7 -9 -53
-11 -103 -5 -170 -12 -461 -17 -740 -3 -154 -7 -341 -10 -415 -14 -347 -20
-1126 -11 -1285 12 -204 17 -329 20 -495 3 -169 10 -232 27 -238 5 -2 9 -10 9
-18 0 -8 8 -14 18 -14 10 0 22 -3 26 -7 4 -4 17 -8 29 -9 12 -1 36 -5 52 -9
17 -4 269 -9 560 -11 292 -2 605 -5 697 -6 93 -2 168 1 168 6 0 5 6 3 13 -3 8
-6 16 -8 19 -5 4 3 37 5 75 4 37 -1 133 -3 213 -5 196 -5 956 -5 1210 0 1247
24 1209 21 1211 83 3 84 9 162 15 188 13 56 14 167 1 183 -10 12 -9 13 3 6 13
-8 13 -6 1 8 -7 9 -11 22 -9 29 3 7 2 22 -2 33 -4 11 -3 26 2 33 6 6 6 12 1
12 -5 0 -7 26 -6 58 9 157 4 470 -8 493 -11 21 -20 187 -11 193 7 4 7 670 0
766 -2 25 -7 48 -13 52 -7 5 -7 8 0 8 12 0 13 170 1 188 -4 7 -2 12 4 12 8 0
8 6 0 20 -8 14 -8 20 0 20 6 0 8 5 4 12 -12 19 -11 232 1 240 6 5 5 8 -4 8
-10 0 -11 3 -2 14 7 8 8 16 4 19 -8 5 -8 111 -1 240 2 26 -1 47 -5 47 -4 0 -4
8 1 18 8 16 15 105 15 195 0 20 3 37 7 37 4 0 4 19 1 43 -8 50 -6 286 2 294 3
3 2 16 -3 29 -5 13 -6 24 -2 24 9 0 7 128 -3 185 -4 22 -8 45 -9 52 -1 7 -5
15 -8 18 -3 4 -3 19 1 33 4 15 7 102 6 194 -1 131 1 168 12 172 7 3 13 11 13
18 0 19 76 66 135 84 28 8 79 17 115 20 35 3 66 7 68 9 3 2 13 0 23 -5 11 -6
20 -6 23 -1 4 5 12 8 19 7 27 -6 112 -19 117 -18 3 0 13 -4 22 -9 10 -5 18 -5
20 1 2 7 15 7 36 1 22 -7 30 -6 26 1 -4 6 1 8 14 4 12 -4 45 -9 74 -11 29 -2
55 -4 58 -5 3 -1 20 -2 38 -2 17 0 32 -3 32 -8 0 -10 207 -6 260 5 19 4 46 8
60 9 14 2 44 11 67 22 36 15 44 25 50 54 9 46 10 49 13 55 1 3 3 8 4 13 17 73
31 120 40 131 9 12 8 13 -4 6 -12 -7 -13 -6 -4 6 7 8 15 30 19 49 4 19 12 46
17 60 5 14 10 27 10 30 0 3 5 13 10 24 6 10 12 33 15 50 3 17 9 33 14 34 5 2
7 8 3 13 -3 5 0 9 7 9 7 0 10 3 6 6 -6 6 7 51 30 102 8 18 17 45 19 60 3 15
13 45 23 67 10 22 16 46 13 53 -2 6 1 12 7 12 6 0 10 3 10 8 -1 4 0 9 1 12 2
6 6 24 13 65 3 17 15 66 26 110 10 44 17 83 15 87 -2 3 0 9 5 12 8 5 15 29 37
131 22 106 53 195 68 195 4 0 6 6 3 14 -3 7 0 22 7 32 7 11 13 35 15 54 2 29
-4 41 -31 65 -38 35 -137 90 -145 81 -3 -3 -18 3 -32 13 -14 10 -43 24 -63 32
-21 7 -38 16 -38 20 0 6 -34 19 -65 25 -5 1 -13 3 -17 4 -5 1 -11 3 -15 5 -18
5 -49 17 -65 26 -10 5 -24 9 -32 9 -8 0 -22 7 -30 16 -9 8 -16 13 -16 11 0 -6
-37 3 -145 33 -44 13 -88 22 -97 22 -10 0 -18 4 -18 9 0 6 -4 8 -9 4 -5 -3
-12 -1 -16 5 -4 6 -10 8 -15 5 -5 -3 -11 -1 -15 5 -4 6 -10 8 -14 5 -5 -2 -23
0 -42 6 -33 10 -48 13 -99 23 -25 4 -39 8 -75 21 -11 4 -27 9 -35 11 -8 2 -48
10 -88 18 -40 9 -82 21 -93 27 -12 6 -29 9 -40 6 -10 -3 -19 -2 -21 3 -3 7
-39 21 -163 67 -27 10 -53 22 -56 26 -3 5 -9 8 -13 8 -15 -3 -56 12 -56 20 0
5 -6 9 -14 9 -8 0 -16 4 -18 8 -1 4 -17 18 -35 30 -26 18 -50 24 -118 27 -47
2 -91 7 -98 12 -6 4 -18 8 -27 9 -8 1 -43 9 -77 18 -35 10 -72 19 -83 22 -11
2 -30 7 -42 10 -13 3 -33 6 -45 5 -13 0 -23 3 -23 7 0 4 -15 9 -33 10 -18 1
-44 5 -57 8 -84 19 -111 24 -160 29 -30 4 -68 10 -85 16 -16 5 -68 11 -115 14
-166 9 -186 11 -200 21 -14 9 -67 13 -175 13 -73 1 -85 -2 -135 -26 -61 -30
-103 -47 -112 -45 -5 1 -8 -3 -8 -8 0 -6 -6 -10 -12 -8 -7 1 -23 -3 -35 -10
-13 -7 -23 -10 -23 -6 0 3 -7 1 -15 -6 -8 -7 -15 -9 -15 -6 0 4 -8 2 -19 -3
-10 -6 -33 -13 -51 -16 -18 -3 -41 -10 -51 -16 -11 -5 -19 -7 -19 -5 0 3 -12
1 -27 -5 -15 -6 -46 -12 -68 -15 -22 -2 -62 -7 -90 -10 -43 -5 -144 -6 -297
-2 -21 1 -38 4 -38 7 0 3 -15 7 -33 8 -42 2 -72 7 -127 23 -25 7 -49 13 -55
15 -36 8 -72 17 -85 22 -8 3 -19 7 -25 9 -43 11 -150 56 -155 65 -4 6 -11 11
-16 11 -17 0 -98 52 -124 79 -14 16 -39 31 -56 34 -43 10 -152 11 -205 4z"/>
</g>
</svg>
